<?xml version="1.0" encoding="UTF-8" standalone="no"?>
<svg
   xmlns:dc="http://purl.org/dc/elements/1.1/"
   xmlns:cc="http://creativecommons.org/ns#"
   xmlns:rdf="http://www.w3.org/1999/02/22-rdf-syntax-ns#"
   xmlns:svg="http://www.w3.org/2000/svg"
   xmlns="http://www.w3.org/2000/svg"
   xmlns:sodipodi="http://sodipodi.sourceforge.net/DTD/sodipodi-0.dtd"
   xmlns:inkscape="http://www.inkscape.org/namespaces/inkscape"
   viewBox="0 0 818.0799 289.88053"
   height="289.88052"
   width="818.0799"
   xml:space="preserve"
   id="svg2"
   version="1.1"
   sodipodi:docname="nnd3d1_5.svg"
   inkscape:version="0.92.1 r15371"><sodipodi:namedview
     pagecolor="#ffffff"
     bordercolor="#666666"
     borderopacity="1"
     objecttolerance="10"
     gridtolerance="10"
     guidetolerance="10"
     inkscape:pageopacity="0"
     inkscape:pageshadow="2"
     inkscape:window-width="1920"
     inkscape:window-height="1017"
     id="namedview7036"
     showgrid="false"
     fit-margin-top="0"
     fit-margin-left="0"
     fit-margin-right="0"
     fit-margin-bottom="0"
     inkscape:zoom="0.73871974"
     inkscape:cx="169.92566"
     inkscape:cy="-15.465201"
     inkscape:window-x="-8"
     inkscape:window-y="-8"
     inkscape:window-maximized="1"
     inkscape:current-layer="g12" /><metadata
     id="metadata8"><rdf:RDF><cc:Work
         rdf:about=""><dc:format>image/svg+xml</dc:format><dc:type
           rdf:resource="http://purl.org/dc/dcmitype/StillImage" /><dc:title></dc:title></cc:Work></rdf:RDF></metadata><defs
     id="defs6" /><g
     transform="matrix(1.3333333,0,0,-1.3333333,-10.01208,307.90559)"
     id="g10"><g
       transform="scale(0.1)"
       id="g12"><path
         id="path16"
         style="fill:#ffffff;fill-opacity:1;fill-rule:evenodd;stroke:none"
         d="m 82.8906,1985.89 h 6002.4 v 315.602 h -6002.4 z"
         inkscape:connector-curvature="0" /><path
         id="path18"
         style="fill:none;stroke:#231f20;stroke-width:15.60000038;stroke-linecap:butt;stroke-linejoin:miter;stroke-miterlimit:10;stroke-dasharray:none;stroke-opacity:1"
         d="m 82.8906,1985.89 h 6002.4 v 315.602 h -6002.4 z"
         inkscape:connector-curvature="0" /><path
         id="path20"
         style="fill:none;stroke:#231f20;stroke-width:15.60000038;stroke-linecap:butt;stroke-linejoin:miter;stroke-miterlimit:10;stroke-dasharray:none;stroke-opacity:1"
         d="m 126.09,1385.89 h 910.3"
         inkscape:connector-curvature="0" /><path
         id="path22"
         style="fill:none;stroke:#231f20;stroke-width:15.60000038;stroke-linecap:butt;stroke-linejoin:miter;stroke-miterlimit:10;stroke-dasharray:none;stroke-opacity:1"
         d="m 126.09,1183.09 h 910.3"
         inkscape:connector-curvature="0" /><path
         id="path24"
         style="fill:none;stroke:#231f20;stroke-width:15.60000038;stroke-linecap:butt;stroke-linejoin:miter;stroke-miterlimit:10;stroke-dasharray:none;stroke-opacity:1"
         d="m 1036.89,1377.99 1.9,241.9"
         inkscape:connector-curvature="0" /><path
         id="path26"
         style="fill:none;stroke:#231f20;stroke-width:15.60000038;stroke-linecap:butt;stroke-linejoin:miter;stroke-miterlimit:10;stroke-dasharray:none;stroke-opacity:1"
         d="m 1030.89,1619.89 424.1,-1.9"
         inkscape:connector-curvature="0" /><path
         id="path28"
         style="fill:none;stroke:#231f20;stroke-width:15.60000038;stroke-linecap:butt;stroke-linejoin:miter;stroke-miterlimit:10;stroke-dasharray:none;stroke-opacity:1"
         d="m 1447.29,1623.49 3.8,-678.701"
         inkscape:connector-curvature="0" /><path
         id="path30"
         style="fill:none;stroke:#231f20;stroke-width:15.60000038;stroke-linecap:butt;stroke-linejoin:miter;stroke-miterlimit:10;stroke-dasharray:none;stroke-opacity:1"
         d="m 1029.69,952.691 h 429.4"
         inkscape:connector-curvature="0" /><path
         id="path32"
         style="fill:none;stroke:#231f20;stroke-width:15.60000038;stroke-linecap:butt;stroke-linejoin:miter;stroke-miterlimit:10;stroke-dasharray:none;stroke-opacity:1"
         d="m 1035.69,947.191 1.9,241.899"
         inkscape:connector-curvature="0" /><path
         id="path34"
         style="fill:#ffffff;fill-opacity:1;fill-rule:evenodd;stroke:none"
         d="m 1810.89,1016.29 369,600 369,-600"
         inkscape:connector-curvature="0" /><path
         id="path36"
         style="fill:none;stroke:#231f20;stroke-width:15.60000038;stroke-linecap:butt;stroke-linejoin:miter;stroke-miterlimit:10;stroke-dasharray:none;stroke-opacity:1"
         d="m 1810.89,1016.29 369,600 369,-600 z"
         inkscape:connector-curvature="0" /><path
         id="path38"
         style="fill:#ffffff;fill-opacity:1;fill-rule:evenodd;stroke:none"
         d="m 2763.69,1520.29 c 0,59.6 48.4,108 108,108 h 1080 c 59.6,0 108,-48.4 108,-108 v -432 c 0,-59.6 -48.4,-108.001 -108,-108.001 h -1080 c -59.6,0 -108,48.401 -108,108.001"
         inkscape:connector-curvature="0" /><path
         id="path40"
         style="fill:none;stroke:#231f20;stroke-width:15.60000038;stroke-linecap:butt;stroke-linejoin:miter;stroke-miterlimit:10;stroke-dasharray:none;stroke-opacity:1"
         d="m 2763.69,1520.29 c 0,59.6 48.4,108 108,108 h 1080 c 59.6,0 108,-48.4 108,-108 v -432 c 0,-59.6 -48.4,-108.001 -108,-108.001 h -1080 c -59.6,0 -108,48.401 -108,108.001 z"
         inkscape:connector-curvature="0" /><path
         id="path42"
         style="fill:none;stroke:#231f20;stroke-width:15.60000038;stroke-linecap:butt;stroke-linejoin:miter;stroke-miterlimit:10;stroke-dasharray:none;stroke-opacity:1"
         d="m 4490.49,1669.09 7.9,-688.399"
         inkscape:connector-curvature="0" /><path
         id="path44"
         style="fill:none;stroke:#231f20;stroke-width:15.60000038;stroke-linecap:butt;stroke-linejoin:miter;stroke-miterlimit:10;stroke-dasharray:none;stroke-opacity:1"
         d="m 4488.09,984.891 1606.2,15.799"
         inkscape:connector-curvature="0" /><path
         id="path46"
         style="fill:none;stroke:#231f20;stroke-width:15.60000038;stroke-linecap:butt;stroke-linejoin:miter;stroke-miterlimit:10;stroke-dasharray:none;stroke-opacity:1"
         d="M 6087.69,994.891 V 1232.29"
         inkscape:connector-curvature="0" /><path
         id="path48"
         style="fill:none;stroke:#231f20;stroke-width:15.60000038;stroke-linecap:butt;stroke-linejoin:miter;stroke-miterlimit:10;stroke-dasharray:none;stroke-opacity:1"
         d="m 6094.09,1227.49 -1044.4,-7.9"
         inkscape:connector-curvature="0" /><path
         id="path50"
         style="fill:none;stroke:#231f20;stroke-width:15.60000038;stroke-linecap:butt;stroke-linejoin:miter;stroke-miterlimit:10;stroke-dasharray:none;stroke-opacity:1"
         d="m 5049.69,1214.49 v 237.4"
         inkscape:connector-curvature="0" /><path
         id="path52"
         style="fill:none;stroke:#231f20;stroke-width:15.60000038;stroke-linecap:butt;stroke-linejoin:miter;stroke-miterlimit:10;stroke-dasharray:none;stroke-opacity:1"
         d="m 6089.29,1451.89 -1044.4,-7.9"
         inkscape:connector-curvature="0" /><path
         id="path54"
         style="fill:none;stroke:#231f20;stroke-width:15.60000038;stroke-linecap:butt;stroke-linejoin:miter;stroke-miterlimit:10;stroke-dasharray:none;stroke-opacity:1"
         d="m 6084.09,1447.29 v 237.4"
         inkscape:connector-curvature="0" /><path
         id="path56"
         style="fill:none;stroke:#231f20;stroke-width:15.60000038;stroke-linecap:butt;stroke-linejoin:miter;stroke-miterlimit:10;stroke-dasharray:none;stroke-opacity:1"
         d="m 4485.69,1665.29 1606.2,15.8"
         inkscape:connector-curvature="0" /><path
         id="path58"
         style="fill:#ffffff;fill-opacity:1;fill-rule:evenodd;stroke:none"
         d="m 1124.49,1201.09 h 58.2 v 266.4 h 116.4 v -266.4 h 58.2 l -116.4,-116.4"
         inkscape:connector-curvature="0" /><path
         id="path60"
         style="fill:none;stroke:#231f20;stroke-width:15.60000038;stroke-linecap:butt;stroke-linejoin:miter;stroke-miterlimit:10;stroke-dasharray:none;stroke-opacity:1"
         d="m 1124.49,1201.09 h 58.2 v 266.4 h 116.4 v -266.4 h 58.2 l -116.4,-116.4 z"
         inkscape:connector-curvature="0" /><path
         id="path62"
         style="fill:#ffffff;fill-opacity:1;fill-rule:evenodd;stroke:none"
         d="m 4852.89,1403.89 h -58.2 v -266.4 h -116.4 v 266.4 h -58.2 l 116.4,116.4"
         inkscape:connector-curvature="0" /><path
         id="path64"
         style="fill:none;stroke:#231f20;stroke-width:15.60000038;stroke-linecap:butt;stroke-linejoin:miter;stroke-miterlimit:10;stroke-dasharray:none;stroke-opacity:1"
         d="m 4852.89,1403.89 h -58.2 v -266.4 h -116.4 v 266.4 h -58.2 l 116.4,116.4 z"
         inkscape:connector-curvature="0" /><g
         transform="scale(10)"
         id="g66"><text
           id="text78"
           style="font-variant:normal;font-weight:normal;font-size:12px;font-family:'Times New Roman';-inkscape-font-specification:TimesNewRomanPSMT;writing-mode:lr-tb;fill:#231f20;fill-opacity:1;fill-rule:nonzero;stroke:none"
           transform="matrix(1,0,0,-1,87.409,211.749)"><tspan
             id="tspan68"
             y="0"
             x="0 6.7080002 12.708 17.982141 23.982141 29.26799 32.375988 35.71199 38.71199">Shape : ?</tspan><tspan
             id="tspan70"
             y="-1.51992"
             x="194.28 200.75992 206.0399 212.1479 215.4839 221.4839 225.4799 230.74791 233.8559 237.19189 240.32393 414.80994 425.24994 430.52997 433.86597 439.76999 445.76999 449.10599 452.35803 455.69403 458.69403">Texture : ?Weight : ?</tspan><tspan
             id="tspan72"
             y="84.759781"
             x="215.27409 223.94395 229.19998 235.19998 239.19598 244.44 247.776 251.02209 259.69196 264.94797 268.284 276.94797 282.94797 286.94397">Neural Network</tspan><tspan
             id="tspan74"
             y="58.510181"
             x="429.0401 437.7041 441.63998 446.91998 452.91998 458.79999 464.08002">Oranges</tspan><tspan
             id="tspan76"
             y="102.75978"
             x="431.30026 439.9584 445.9584 451.9584 455.30026 460.58032">Apples</tspan></text>
<text
           id="text82"
           style="font-variant:normal;font-weight:normal;font-size:12.02400017px;font-family:'Times New Roman';-inkscape-font-specification:TimesNewRomanPSMT;writing-mode:lr-tb;fill:#231f20;fill-opacity:1;fill-rule:nonzero;stroke:none"
           transform="matrix(1,0,0,-1,34.14926,124.74902)"><tspan
             id="tspan80"
             y="0"
             x="0 6.6011758 10.556987 16.568987 19.911659 23.254332">Fruits</tspan></text>
</g><path
         id="path84"
         style="fill:none;stroke:#231f20;stroke-width:15.60000038;stroke-linecap:butt;stroke-linejoin:miter;stroke-miterlimit:10;stroke-dasharray:none;stroke-opacity:1"
         d="m 1822.89,1981.09 6.3,-543.8"
         inkscape:connector-curvature="0" /><path
         id="path86"
         style="fill:none;stroke:#231f20;stroke-width:15.60000038;stroke-linecap:butt;stroke-linejoin:miter;stroke-miterlimit:10;stroke-dasharray:none;stroke-opacity:1"
         d="m 1639.29,1983.49 v -697.5"
         inkscape:connector-curvature="0" /><path
         id="path88"
         style="fill:none;stroke:#231f20;stroke-width:15.60000038;stroke-linecap:butt;stroke-linejoin:miter;stroke-miterlimit:10;stroke-dasharray:none;stroke-opacity:1"
         d="m 1729.29,1981.09 3.7,-623.8"
         inkscape:connector-curvature="0" /><path
         id="path90"
         style="fill:none;stroke:#231f20;stroke-width:15.60000038;stroke-linecap:butt;stroke-linejoin:miter;stroke-miterlimit:10;stroke-dasharray:none;stroke-opacity:1"
         d="m 1820.49,1437.39 202.5,2.5"
         inkscape:connector-curvature="0" /><path
         id="path92"
         style="fill:none;stroke:#231f20;stroke-width:15.60000038;stroke-linecap:butt;stroke-linejoin:miter;stroke-miterlimit:10;stroke-dasharray:none;stroke-opacity:1"
         d="m 1726.89,1363.09 h 251.3"
         inkscape:connector-curvature="0" /><path
         id="path94"
         style="fill:none;stroke:#231f20;stroke-width:15.60000038;stroke-linecap:butt;stroke-linejoin:miter;stroke-miterlimit:10;stroke-dasharray:none;stroke-opacity:1"
         d="m 1632.09,1290.99 305,2.5"
         inkscape:connector-curvature="0" /><path
         id="path96"
         style="fill:none;stroke:#231f20;stroke-width:15.60000038;stroke-linecap:butt;stroke-linejoin:miter;stroke-miterlimit:10;stroke-dasharray:none;stroke-opacity:1"
         d="m 2329.29,1443.49 h 428.8"
         inkscape:connector-curvature="0" /><path
         id="path98"
         style="fill:none;stroke:#231f20;stroke-width:15.60000038;stroke-linecap:butt;stroke-linejoin:miter;stroke-miterlimit:10;stroke-dasharray:none;stroke-opacity:1"
         d="m 2379.69,1355.69 381.3,5"
         inkscape:connector-curvature="0" /><path
         id="path100"
         style="fill:none;stroke:#231f20;stroke-width:15.60000038;stroke-linecap:butt;stroke-linejoin:miter;stroke-miterlimit:10;stroke-dasharray:none;stroke-opacity:1"
         d="m 2439.69,1265.89 321.3,1.2"
         inkscape:connector-curvature="0" /><path
         id="path102"
         style="fill:none;stroke:#231f20;stroke-width:15.60000038;stroke-linecap:butt;stroke-linejoin:miter;stroke-miterlimit:10;stroke-dasharray:none;stroke-opacity:1"
         d="m 4082.49,1337.29 381.9,0.6"
         inkscape:connector-curvature="0" /><path
         id="path104"
         style="fill:#ffffff;fill-opacity:1;fill-rule:evenodd;stroke:none"
         d="m 390.09,296.891 c 0,72.597 58.801,131.398 131.398,131.398 72.602,0 131.403,-58.801 131.403,-131.398 0,-72.602 -58.801,-131.403 -131.403,-131.403 -72.597,0 -131.398,58.801 -131.398,131.403"
         inkscape:connector-curvature="0" /><path
         id="path106"
         style="fill:none;stroke:#231f20;stroke-width:15.60000038;stroke-linecap:butt;stroke-linejoin:miter;stroke-miterlimit:10;stroke-dasharray:none;stroke-opacity:1"
         d="m 390.09,296.891 c 0,72.597 58.801,131.398 131.398,131.398 72.602,0 131.403,-58.801 131.403,-131.398 0,-72.602 -58.801,-131.403 -131.403,-131.403 -72.597,0 -131.398,58.801 -131.398,131.403 z"
         inkscape:connector-curvature="0" /><path
         id="path108"
         style="fill:#ffffff;fill-opacity:1;fill-rule:evenodd;stroke:none"
         d="m 5940.09,274.691 c 0,72.2 58.8,130.797 131.4,130.797 72.6,0 131.4,-58.597 131.4,-130.797 0,-72.199 -58.8,-130.8 -131.4,-130.8 -72.6,0 -131.4,58.601 -131.4,130.8"
         inkscape:connector-curvature="0" /><path
         id="path110"
         style="fill:none;stroke:#231f20;stroke-width:15.60000038;stroke-linecap:butt;stroke-linejoin:miter;stroke-miterlimit:10;stroke-dasharray:none;stroke-opacity:1"
         d="m 5940.09,274.691 c 0,72.2 58.8,130.797 131.4,130.797 72.6,0 131.4,-58.597 131.4,-130.797 0,-72.199 -58.8,-130.8 -131.4,-130.8 -72.6,0 -131.4,58.601 -131.4,130.8 z"
         inkscape:connector-curvature="0" /><path
         id="path112"
         style="fill:none;stroke:#231f20;stroke-width:15.60000038;stroke-linecap:butt;stroke-linejoin:miter;stroke-miterlimit:10;stroke-dasharray:none;stroke-opacity:1"
         d="m 520.891,428.289 5549.999,-22.5"
         inkscape:connector-curvature="0" /><path
         id="path114"
         style="fill:none;stroke:#231f20;stroke-width:15.60000038;stroke-linecap:butt;stroke-linejoin:miter;stroke-miterlimit:10;stroke-dasharray:none;stroke-opacity:1"
         d="m 513.691,165.488 5549.999,-22.5"
         inkscape:connector-curvature="0" /><path
         id="path116"
         style="fill:#ffffff;fill-opacity:1;fill-rule:evenodd;stroke:none"
         d="m 1957.29,322.09 c 0,8.898 7.3,16.199 16.2,16.199 h 484.8 c 8.9,0 16.2,-7.301 16.2,-16.199 v -64.801 c 0,-8.898 -7.3,-16.199 -16.2,-16.199 h -484.8 c -8.9,0 -16.2,7.301 -16.2,16.199"
         inkscape:connector-curvature="0" /><path
         id="path118"
         style="fill:none;stroke:#231f20;stroke-width:15.60000038;stroke-linecap:butt;stroke-linejoin:miter;stroke-miterlimit:10;stroke-dasharray:none;stroke-opacity:1"
         d="m 1957.29,322.09 c 0,8.898 7.3,16.199 16.2,16.199 h 484.8 c 8.9,0 16.2,-7.301 16.2,-16.199 v -64.801 c 0,-8.898 -7.3,-16.199 -16.2,-16.199 h -484.8 c -8.9,0 -16.2,7.301 -16.2,16.199 z"
         inkscape:connector-curvature="0" /><path
         id="path120"
         style="fill:#efed06;fill-opacity:1;fill-rule:evenodd;stroke:none"
         d="m 4649.49,1100.29 c 0,58 50.2,105 112.2,105 62,0 112.2,-47 112.2,-105 0,-58 -50.2,-105.001 -112.2,-105.001 -62,0 -112.2,47.001 -112.2,105.001"
         inkscape:connector-curvature="0" /><path
         id="path122"
         style="fill:none;stroke:#231f20;stroke-width:9.60000038;stroke-linecap:butt;stroke-linejoin:miter;stroke-miterlimit:10;stroke-dasharray:none;stroke-opacity:1"
         d="m 4649.49,1100.29 c 0,58 50.2,105 112.2,105 62,0 112.2,-47 112.2,-105 0,-58 -50.2,-105.001 -112.2,-105.001 -62,0 -112.2,47.001 -112.2,105.001 z"
         inkscape:connector-curvature="0" /><g
         transform="scale(10)"
         id="g124"><text
           id="text128"
           style="font-variant:normal;font-weight:normal;font-size:18px;font-family:Calibri;-inkscape-font-specification:Calibri;writing-mode:lr-tb;fill:#231f20;fill-opacity:1;fill-rule:nonzero;stroke:none"
           transform="matrix(1,0,0,-1,471.959,103.969)"><tspan
             id="tspan126"
             y="0"
             x="0">a</tspan></text>
</g></g></g></svg>