<?xml version="1.0" encoding="UTF-8" standalone="no"?>
<svg
   xmlns:dc="http://purl.org/dc/elements/1.1/"
   xmlns:cc="http://creativecommons.org/ns#"
   xmlns:rdf="http://www.w3.org/1999/02/22-rdf-syntax-ns#"
   xmlns:svg="http://www.w3.org/2000/svg"
   xmlns="http://www.w3.org/2000/svg"
   xmlns:sodipodi="http://sodipodi.sourceforge.net/DTD/sodipodi-0.dtd"
   xmlns:inkscape="http://www.inkscape.org/namespaces/inkscape"
   viewBox="0 0 818.08026 289.88024"
   height="289.88025"
   width="818.08026"
   xml:space="preserve"
   id="svg2"
   version="1.1"
   sodipodi:docname="nnd3d1_8.svg"
   inkscape:version="0.92.1 r15371"><sodipodi:namedview
     pagecolor="#ffffff"
     bordercolor="#666666"
     borderopacity="1"
     objecttolerance="10"
     gridtolerance="10"
     guidetolerance="10"
     inkscape:pageopacity="0"
     inkscape:pageshadow="2"
     inkscape:window-width="1920"
     inkscape:window-height="1017"
     id="namedview8860"
     showgrid="false"
     fit-margin-top="0"
     fit-margin-left="0"
     fit-margin-right="0"
     fit-margin-bottom="0"
     inkscape:zoom="1.06763"
     inkscape:cx="385.42802"
     inkscape:cy="100.42713"
     inkscape:window-x="-8"
     inkscape:window-y="-8"
     inkscape:window-maximized="1"
     inkscape:current-layer="g12" /><metadata
     id="metadata8"><rdf:RDF><cc:Work
         rdf:about=""><dc:format>image/svg+xml</dc:format><dc:type
           rdf:resource="http://purl.org/dc/dcmitype/StillImage" /><dc:title></dc:title></cc:Work></rdf:RDF></metadata><defs
     id="defs6" /><g
     transform="matrix(1.3333333,0,0,-1.3333333,-3.6277066,302.58559)"
     id="g10"><g
       transform="scale(0.1)"
       id="g12"><path
         id="path16"
         style="fill:#ffffff;fill-opacity:1;fill-rule:evenodd;stroke:none"
         d="m 35.0078,1945.99 h 6002.4 v 315.602 h -6002.4 z"
         inkscape:connector-curvature="0" /><path
         id="path18"
         style="fill:none;stroke:#231f20;stroke-width:15.60000038;stroke-linecap:butt;stroke-linejoin:miter;stroke-miterlimit:10;stroke-dasharray:none;stroke-opacity:1"
         d="m 35.0078,1945.99 h 6002.4 v 315.602 h -6002.4 z"
         inkscape:connector-curvature="0" /><path
         id="path20"
         style="fill:none;stroke:#231f20;stroke-width:15.60000038;stroke-linecap:butt;stroke-linejoin:miter;stroke-miterlimit:10;stroke-dasharray:none;stroke-opacity:1"
         d="M 78.2109,1345.99 H 988.508"
         inkscape:connector-curvature="0" /><path
         id="path22"
         style="fill:none;stroke:#231f20;stroke-width:15.60000038;stroke-linecap:butt;stroke-linejoin:miter;stroke-miterlimit:10;stroke-dasharray:none;stroke-opacity:1"
         d="M 78.2109,1143.19 H 988.508"
         inkscape:connector-curvature="0" /><path
         id="path24"
         style="fill:none;stroke:#231f20;stroke-width:15.60000038;stroke-linecap:butt;stroke-linejoin:miter;stroke-miterlimit:10;stroke-dasharray:none;stroke-opacity:1"
         d="m 989.008,1338.09 1.902,241.9"
         inkscape:connector-curvature="0" /><path
         id="path26"
         style="fill:none;stroke:#231f20;stroke-width:15.60000038;stroke-linecap:butt;stroke-linejoin:miter;stroke-miterlimit:10;stroke-dasharray:none;stroke-opacity:1"
         d="m 983.008,1579.99 424.102,-1.9"
         inkscape:connector-curvature="0" /><path
         id="path28"
         style="fill:none;stroke:#231f20;stroke-width:15.60000038;stroke-linecap:butt;stroke-linejoin:miter;stroke-miterlimit:10;stroke-dasharray:none;stroke-opacity:1"
         d="m 1399.41,1583.59 3.8,-678.699"
         inkscape:connector-curvature="0" /><path
         id="path30"
         style="fill:none;stroke:#231f20;stroke-width:15.60000038;stroke-linecap:butt;stroke-linejoin:miter;stroke-miterlimit:10;stroke-dasharray:none;stroke-opacity:1"
         d="M 981.809,912.789 H 1411.21"
         inkscape:connector-curvature="0" /><path
         id="path32"
         style="fill:none;stroke:#231f20;stroke-width:15.60000038;stroke-linecap:butt;stroke-linejoin:miter;stroke-miterlimit:10;stroke-dasharray:none;stroke-opacity:1"
         d="m 987.809,907.289 1.902,241.901"
         inkscape:connector-curvature="0" /><path
         id="path34"
         style="fill:#ffffff;fill-opacity:1;fill-rule:evenodd;stroke:none"
         d="m 1763.01,976.391 369,599.999 369,-599.999"
         inkscape:connector-curvature="0" /><path
         id="path36"
         style="fill:none;stroke:#231f20;stroke-width:15.60000038;stroke-linecap:butt;stroke-linejoin:miter;stroke-miterlimit:10;stroke-dasharray:none;stroke-opacity:1"
         d="m 1763.01,976.391 369,599.999 369,-599.999 z"
         inkscape:connector-curvature="0" /><path
         id="path38"
         style="fill:#ffffff;fill-opacity:1;fill-rule:evenodd;stroke:none"
         d="m 2715.81,1480.39 c 0,59.6 48.4,108 108,108 h 1080 c 59.6,0 108,-48.4 108,-108 v -432 c 0,-59.601 -48.4,-107.999 -108,-107.999 h -1080 c -59.6,0 -108,48.398 -108,107.999"
         inkscape:connector-curvature="0" /><path
         id="path40"
         style="fill:none;stroke:#231f20;stroke-width:15.60000038;stroke-linecap:butt;stroke-linejoin:miter;stroke-miterlimit:10;stroke-dasharray:none;stroke-opacity:1"
         d="m 2715.81,1480.39 c 0,59.6 48.4,108 108,108 h 1080 c 59.6,0 108,-48.4 108,-108 v -432 c 0,-59.601 -48.4,-107.999 -108,-107.999 h -1080 c -59.6,0 -108,48.398 -108,107.999 z"
         inkscape:connector-curvature="0" /><path
         id="path42"
         style="fill:none;stroke:#231f20;stroke-width:15.60000038;stroke-linecap:butt;stroke-linejoin:miter;stroke-miterlimit:10;stroke-dasharray:none;stroke-opacity:1"
         d="m 4442.61,1629.19 7.9,-688.401"
         inkscape:connector-curvature="0" /><path
         id="path44"
         style="fill:none;stroke:#231f20;stroke-width:15.60000038;stroke-linecap:butt;stroke-linejoin:miter;stroke-miterlimit:10;stroke-dasharray:none;stroke-opacity:1"
         d="m 4440.21,944.992 1606.2,15.797"
         inkscape:connector-curvature="0" /><path
         id="path46"
         style="fill:none;stroke:#231f20;stroke-width:15.60000038;stroke-linecap:butt;stroke-linejoin:miter;stroke-miterlimit:10;stroke-dasharray:none;stroke-opacity:1"
         d="M 6039.81,954.992 V 1192.39"
         inkscape:connector-curvature="0" /><path
         id="path48"
         style="fill:none;stroke:#231f20;stroke-width:15.60000038;stroke-linecap:butt;stroke-linejoin:miter;stroke-miterlimit:10;stroke-dasharray:none;stroke-opacity:1"
         d="m 6046.21,1187.59 -1044.4,-7.9"
         inkscape:connector-curvature="0" /><path
         id="path50"
         style="fill:none;stroke:#231f20;stroke-width:15.60000038;stroke-linecap:butt;stroke-linejoin:miter;stroke-miterlimit:10;stroke-dasharray:none;stroke-opacity:1"
         d="m 5001.81,1174.59 v 237.4"
         inkscape:connector-curvature="0" /><path
         id="path52"
         style="fill:none;stroke:#231f20;stroke-width:15.60000038;stroke-linecap:butt;stroke-linejoin:miter;stroke-miterlimit:10;stroke-dasharray:none;stroke-opacity:1"
         d="m 6041.41,1411.99 -1044.4,-7.9"
         inkscape:connector-curvature="0" /><path
         id="path54"
         style="fill:none;stroke:#231f20;stroke-width:15.60000038;stroke-linecap:butt;stroke-linejoin:miter;stroke-miterlimit:10;stroke-dasharray:none;stroke-opacity:1"
         d="m 6036.21,1407.39 v 237.4"
         inkscape:connector-curvature="0" /><path
         id="path56"
         style="fill:none;stroke:#231f20;stroke-width:15.60000038;stroke-linecap:butt;stroke-linejoin:miter;stroke-miterlimit:10;stroke-dasharray:none;stroke-opacity:1"
         d="m 4437.81,1625.39 1606.2,15.8"
         inkscape:connector-curvature="0" /><path
         id="path58"
         style="fill:#ffffff;fill-opacity:1;fill-rule:evenodd;stroke:none"
         d="m 1076.61,1161.19 h 58.2 v 266.4 h 116.4 v -266.4 h 58.2 l -116.4,-116.4"
         inkscape:connector-curvature="0" /><path
         id="path60"
         style="fill:none;stroke:#231f20;stroke-width:15.60000038;stroke-linecap:butt;stroke-linejoin:miter;stroke-miterlimit:10;stroke-dasharray:none;stroke-opacity:1"
         d="m 1076.61,1161.19 h 58.2 v 266.4 h 116.4 v -266.4 h 58.2 l -116.4,-116.4 z"
         inkscape:connector-curvature="0" /><path
         id="path62"
         style="fill:#ffffff;fill-opacity:1;fill-rule:evenodd;stroke:none"
         d="m 4805.01,1363.99 h -58.2 v -266.4 h -116.4 v 266.4 h -58.2 l 116.4,116.4"
         inkscape:connector-curvature="0" /><path
         id="path64"
         style="fill:none;stroke:#231f20;stroke-width:15.60000038;stroke-linecap:butt;stroke-linejoin:miter;stroke-miterlimit:10;stroke-dasharray:none;stroke-opacity:1"
         d="m 4805.01,1363.99 h -58.2 v -266.4 h -116.4 v 266.4 h -58.2 l 116.4,116.4 z"
         inkscape:connector-curvature="0" /><g
         transform="scale(10)"
         id="g66"><text
           id="text78"
           style="font-variant:normal;font-weight:normal;font-size:12px;font-family:'Times New Roman';-inkscape-font-specification:TimesNewRomanPSMT;writing-mode:lr-tb;fill:#231f20;fill-opacity:1;fill-rule:nonzero;stroke:none"
           transform="matrix(1,0,0,-1,82.6211,207.759)"><tspan
             id="tspan68"
             y="0"
             x="0 6.7080002 12.708 17.982141 23.982141 29.26799 32.375988 35.71199 38.71199">Shape : ?</tspan><tspan
             id="tspan70"
             y="-1.51992"
             x="194.28 200.75992 206.0399 212.1479 215.4839 221.4839 225.4799 230.74791 233.8559 237.19189 240.32393 414.80994 425.24994 430.52997 433.86597 439.76999 445.76999 449.10599 452.35803 455.69403 458.69403">Texture : ?Weight : ?</tspan><tspan
             id="tspan72"
             y="84.760178"
             x="215.27409 223.94395 229.19998 235.19998 239.19598 244.44 247.776 251.02209 259.69196 264.94797 268.284 276.94797 282.94797 286.94397">Neural Network</tspan><tspan
             id="tspan74"
             y="58.510181"
             x="429.0401 437.7041 441.63998 446.91998 452.91998 458.79999 464.08002">Oranges</tspan><tspan
             id="tspan76"
             y="102.75978"
             x="431.30026 439.9584 445.9584 451.9584 455.30026 460.58032">Apples</tspan></text>
<text
           id="text82"
           style="font-variant:normal;font-weight:normal;font-size:12.02400017px;font-family:'Times New Roman';-inkscape-font-specification:TimesNewRomanPSMT;writing-mode:lr-tb;fill:#231f20;fill-opacity:1;fill-rule:nonzero;stroke:none"
           transform="matrix(1,0,0,-1,29.36136,120.75902)"><tspan
             id="tspan80"
             y="0"
             x="0 6.6011758 10.556987 16.568987 19.911659 23.254332">Fruits</tspan></text>
</g><path
         id="path84"
         style="fill:none;stroke:#231f20;stroke-width:15.60000038;stroke-linecap:butt;stroke-linejoin:miter;stroke-miterlimit:10;stroke-dasharray:none;stroke-opacity:1"
         d="m 1775.01,1941.19 6.3,-543.8"
         inkscape:connector-curvature="0" /><path
         id="path86"
         style="fill:none;stroke:#231f20;stroke-width:15.60000038;stroke-linecap:butt;stroke-linejoin:miter;stroke-miterlimit:10;stroke-dasharray:none;stroke-opacity:1"
         d="m 1591.41,1943.59 v -697.5"
         inkscape:connector-curvature="0" /><path
         id="path88"
         style="fill:none;stroke:#231f20;stroke-width:15.60000038;stroke-linecap:butt;stroke-linejoin:miter;stroke-miterlimit:10;stroke-dasharray:none;stroke-opacity:1"
         d="m 1681.41,1941.19 3.7,-623.8"
         inkscape:connector-curvature="0" /><path
         id="path90"
         style="fill:none;stroke:#231f20;stroke-width:15.60000038;stroke-linecap:butt;stroke-linejoin:miter;stroke-miterlimit:10;stroke-dasharray:none;stroke-opacity:1"
         d="m 1772.61,1397.49 202.5,2.5"
         inkscape:connector-curvature="0" /><path
         id="path92"
         style="fill:none;stroke:#231f20;stroke-width:15.60000038;stroke-linecap:butt;stroke-linejoin:miter;stroke-miterlimit:10;stroke-dasharray:none;stroke-opacity:1"
         d="m 1679.01,1323.19 h 251.3"
         inkscape:connector-curvature="0" /><path
         id="path94"
         style="fill:none;stroke:#231f20;stroke-width:15.60000038;stroke-linecap:butt;stroke-linejoin:miter;stroke-miterlimit:10;stroke-dasharray:none;stroke-opacity:1"
         d="m 1584.21,1251.09 305,2.5"
         inkscape:connector-curvature="0" /><path
         id="path96"
         style="fill:none;stroke:#231f20;stroke-width:15.60000038;stroke-linecap:butt;stroke-linejoin:miter;stroke-miterlimit:10;stroke-dasharray:none;stroke-opacity:1"
         d="m 2281.41,1403.59 h 428.8"
         inkscape:connector-curvature="0" /><path
         id="path98"
         style="fill:none;stroke:#231f20;stroke-width:15.60000038;stroke-linecap:butt;stroke-linejoin:miter;stroke-miterlimit:10;stroke-dasharray:none;stroke-opacity:1"
         d="m 2331.81,1315.79 381.3,5"
         inkscape:connector-curvature="0" /><path
         id="path100"
         style="fill:none;stroke:#231f20;stroke-width:15.60000038;stroke-linecap:butt;stroke-linejoin:miter;stroke-miterlimit:10;stroke-dasharray:none;stroke-opacity:1"
         d="m 2391.81,1225.99 321.3,1.2"
         inkscape:connector-curvature="0" /><path
         id="path102"
         style="fill:none;stroke:#231f20;stroke-width:15.60000038;stroke-linecap:butt;stroke-linejoin:miter;stroke-miterlimit:10;stroke-dasharray:none;stroke-opacity:1"
         d="m 4034.61,1297.39 381.9,0.6"
         inkscape:connector-curvature="0" /><path
         id="path104"
         style="fill:#ffffff;fill-opacity:1;fill-rule:evenodd;stroke:none"
         d="m 342.211,256.992 c 0,72.598 58.797,131.399 131.398,131.399 72.602,0 131.399,-58.801 131.399,-131.399 0,-72.601 -58.797,-131.402 -131.399,-131.402 -72.601,0 -131.398,58.801 -131.398,131.402"
         inkscape:connector-curvature="0" /><path
         id="path106"
         style="fill:none;stroke:#231f20;stroke-width:15.60000038;stroke-linecap:butt;stroke-linejoin:miter;stroke-miterlimit:10;stroke-dasharray:none;stroke-opacity:1"
         d="m 342.211,256.992 c 0,72.598 58.797,131.399 131.398,131.399 72.602,0 131.399,-58.801 131.399,-131.399 0,-72.601 -58.797,-131.402 -131.399,-131.402 -72.601,0 -131.398,58.801 -131.398,131.402 z"
         inkscape:connector-curvature="0" /><path
         id="path108"
         style="fill:#ffffff;fill-opacity:1;fill-rule:evenodd;stroke:none"
         d="m 5892.21,234.789 c 0,72.203 58.8,130.801 131.4,130.801 72.6,0 131.4,-58.598 131.4,-130.801 0,-72.199 -58.8,-130.797 -131.4,-130.797 -72.6,0 -131.4,58.598 -131.4,130.797"
         inkscape:connector-curvature="0" /><path
         id="path110"
         style="fill:none;stroke:#231f20;stroke-width:15.60000038;stroke-linecap:butt;stroke-linejoin:miter;stroke-miterlimit:10;stroke-dasharray:none;stroke-opacity:1"
         d="m 5892.21,234.789 c 0,72.203 58.8,130.801 131.4,130.801 72.6,0 131.4,-58.598 131.4,-130.801 0,-72.199 -58.8,-130.797 -131.4,-130.797 -72.6,0 -131.4,58.598 -131.4,130.797 z"
         inkscape:connector-curvature="0" /><path
         id="path112"
         style="fill:none;stroke:#231f20;stroke-width:15.60000038;stroke-linecap:butt;stroke-linejoin:miter;stroke-miterlimit:10;stroke-dasharray:none;stroke-opacity:1"
         d="m 473.008,388.391 5550.002,-22.5"
         inkscape:connector-curvature="0" /><path
         id="path114"
         style="fill:none;stroke:#231f20;stroke-width:15.60000038;stroke-linecap:butt;stroke-linejoin:miter;stroke-miterlimit:10;stroke-dasharray:none;stroke-opacity:1"
         d="M 465.809,125.59 6015.81,103.09"
         inkscape:connector-curvature="0" /><path
         id="path116"
         style="fill:#ffffff;fill-opacity:1;fill-rule:evenodd;stroke:none"
         d="m 1909.41,282.191 c 0,8.899 7.3,16.2 16.2,16.2 h 484.8 c 8.9,0 16.2,-7.301 16.2,-16.2 v -64.8 c 0,-8.899 -7.3,-16.2 -16.2,-16.2 h -484.8 c -8.9,0 -16.2,7.301 -16.2,16.2"
         inkscape:connector-curvature="0" /><path
         id="path118"
         style="fill:none;stroke:#231f20;stroke-width:15.60000038;stroke-linecap:butt;stroke-linejoin:miter;stroke-miterlimit:10;stroke-dasharray:none;stroke-opacity:1"
         d="m 1909.41,282.191 c 0,8.899 7.3,16.2 16.2,16.2 h 484.8 c 8.9,0 16.2,-7.301 16.2,-16.2 v -64.8 c 0,-8.899 -7.3,-16.2 -16.2,-16.2 h -484.8 c -8.9,0 -16.2,7.301 -16.2,16.2 z"
         inkscape:connector-curvature="0" /><path
         id="path120"
         style="fill:#ed6c26;fill-opacity:1;fill-rule:evenodd;stroke:none"
         d="m 2002.41,539.59 c 0,58 50.5,105 112.8,105 62.3,0 112.8,-47 112.8,-105 0,-58 -50.5,-105 -112.8,-105 -62.3,0 -112.8,47 -112.8,105"
         inkscape:connector-curvature="0" /><path
         id="path122"
         style="fill:none;stroke:#231f20;stroke-width:9.60000038;stroke-linecap:butt;stroke-linejoin:miter;stroke-miterlimit:10;stroke-dasharray:none;stroke-opacity:1"
         d="m 2002.41,539.59 c 0,58 50.5,105 112.8,105 62.3,0 112.8,-47 112.8,-105 0,-58 -50.5,-105 -112.8,-105 -62.3,0 -112.8,47 -112.8,105 z"
         inkscape:connector-curvature="0" /><g
         transform="scale(10)"
         id="g124"><text
           id="text128"
           style="font-variant:normal;font-weight:normal;font-size:18px;font-family:Calibri;-inkscape-font-specification:Calibri;writing-mode:lr-tb;fill:#231f20;fill-opacity:1;fill-rule:nonzero;stroke:none"
           transform="matrix(1,0,0,-1,206.791,47.8488)"><tspan
             id="tspan126"
             y="0"
             x="0">o</tspan></text>
</g></g></g></svg>