<?xml version="1.0" encoding="UTF-8" standalone="no"?>
<svg
   xmlns:dc="http://purl.org/dc/elements/1.1/"
   xmlns:cc="http://creativecommons.org/ns#"
   xmlns:rdf="http://www.w3.org/1999/02/22-rdf-syntax-ns#"
   xmlns:svg="http://www.w3.org/2000/svg"
   xmlns="http://www.w3.org/2000/svg"
   xmlns:sodipodi="http://sodipodi.sourceforge.net/DTD/sodipodi-0.dtd"
   xmlns:inkscape="http://www.inkscape.org/namespaces/inkscape"
   viewBox="0 0 818.08014 289.88012"
   height="289.88013"
   width="818.08014"
   xml:space="preserve"
   id="svg2"
   version="1.1"
   sodipodi:docname="nnd3d1_4.svg"
   inkscape:version="0.92.1 r15371"><sodipodi:namedview
     pagecolor="#ffffff"
     bordercolor="#666666"
     borderopacity="1"
     objecttolerance="10"
     gridtolerance="10"
     guidetolerance="10"
     inkscape:pageopacity="0"
     inkscape:pageshadow="2"
     inkscape:window-width="1920"
     inkscape:window-height="1017"
     id="namedview6428"
     showgrid="false"
     fit-margin-top="0"
     fit-margin-left="0"
     fit-margin-right="0"
     fit-margin-bottom="0"
     inkscape:zoom="0.7520223"
     inkscape:cx="249.41312"
     inkscape:cy="76.262456"
     inkscape:window-x="-8"
     inkscape:window-y="-8"
     inkscape:window-maximized="1"
     inkscape:current-layer="g12" /><metadata
     id="metadata8"><rdf:RDF><cc:Work
         rdf:about=""><dc:format>image/svg+xml</dc:format><dc:type
           rdf:resource="http://purl.org/dc/dcmitype/StillImage" /><dc:title></dc:title></cc:Work></rdf:RDF></metadata><defs
     id="defs6" /><g
     transform="matrix(1.3333333,0,0,-1.3333333,-5.7558398,304.71359)"
     id="g10"><g
       transform="scale(0.1)"
       id="g12"><path
         id="path16"
         style="fill:#ffffff;fill-opacity:1;fill-rule:evenodd;stroke:none"
         d="m 50.9688,1961.95 h 6002.4 v 315.602 h -6002.4 z"
         inkscape:connector-curvature="0" /><path
         id="path18"
         style="fill:none;stroke:#231f20;stroke-width:15.60000038;stroke-linecap:butt;stroke-linejoin:miter;stroke-miterlimit:10;stroke-dasharray:none;stroke-opacity:1"
         d="m 50.9688,1961.95 h 6002.4 v 315.602 h -6002.4 z"
         inkscape:connector-curvature="0" /><path
         id="path20"
         style="fill:none;stroke:#231f20;stroke-width:15.60000038;stroke-linecap:butt;stroke-linejoin:miter;stroke-miterlimit:10;stroke-dasharray:none;stroke-opacity:1"
         d="M 94.168,1361.95 H 1004.47"
         inkscape:connector-curvature="0" /><path
         id="path22"
         style="fill:none;stroke:#231f20;stroke-width:15.60000038;stroke-linecap:butt;stroke-linejoin:miter;stroke-miterlimit:10;stroke-dasharray:none;stroke-opacity:1"
         d="M 94.168,1159.15 H 1004.47"
         inkscape:connector-curvature="0" /><path
         id="path24"
         style="fill:none;stroke:#231f20;stroke-width:15.60000038;stroke-linecap:butt;stroke-linejoin:miter;stroke-miterlimit:10;stroke-dasharray:none;stroke-opacity:1"
         d="m 1004.97,1354.05 1.9,241.9"
         inkscape:connector-curvature="0" /><path
         id="path26"
         style="fill:none;stroke:#231f20;stroke-width:15.60000038;stroke-linecap:butt;stroke-linejoin:miter;stroke-miterlimit:10;stroke-dasharray:none;stroke-opacity:1"
         d="m 998.969,1595.95 424.101,-1.9"
         inkscape:connector-curvature="0" /><path
         id="path28"
         style="fill:none;stroke:#231f20;stroke-width:15.60000038;stroke-linecap:butt;stroke-linejoin:miter;stroke-miterlimit:10;stroke-dasharray:none;stroke-opacity:1"
         d="m 1415.37,1599.55 3.8,-678.698"
         inkscape:connector-curvature="0" /><path
         id="path30"
         style="fill:none;stroke:#231f20;stroke-width:15.60000038;stroke-linecap:butt;stroke-linejoin:miter;stroke-miterlimit:10;stroke-dasharray:none;stroke-opacity:1"
         d="m 997.77,928.75 h 429.4"
         inkscape:connector-curvature="0" /><path
         id="path32"
         style="fill:none;stroke:#231f20;stroke-width:15.60000038;stroke-linecap:butt;stroke-linejoin:miter;stroke-miterlimit:10;stroke-dasharray:none;stroke-opacity:1"
         d="m 1003.77,923.25 1.9,241.9"
         inkscape:connector-curvature="0" /><path
         id="path34"
         style="fill:#ffffff;fill-opacity:1;fill-rule:evenodd;stroke:none"
         d="m 1778.97,992.352 369,599.998 369,-599.998"
         inkscape:connector-curvature="0" /><path
         id="path36"
         style="fill:none;stroke:#231f20;stroke-width:15.60000038;stroke-linecap:butt;stroke-linejoin:miter;stroke-miterlimit:10;stroke-dasharray:none;stroke-opacity:1"
         d="m 1778.97,992.352 369,599.998 369,-599.998 z"
         inkscape:connector-curvature="0" /><path
         id="path38"
         style="fill:#ffffff;fill-opacity:1;fill-rule:evenodd;stroke:none"
         d="m 2731.77,1496.35 c 0,59.6 48.4,108 108,108 h 1080 c 59.6,0 108,-48.4 108,-108 v -432 c 0,-59.6 -48.4,-107.998 -108,-107.998 h -1080 c -59.6,0 -108,48.398 -108,107.998"
         inkscape:connector-curvature="0" /><path
         id="path40"
         style="fill:none;stroke:#231f20;stroke-width:15.60000038;stroke-linecap:butt;stroke-linejoin:miter;stroke-miterlimit:10;stroke-dasharray:none;stroke-opacity:1"
         d="m 2731.77,1496.35 c 0,59.6 48.4,108 108,108 h 1080 c 59.6,0 108,-48.4 108,-108 v -432 c 0,-59.6 -48.4,-107.998 -108,-107.998 h -1080 c -59.6,0 -108,48.398 -108,107.998 z"
         inkscape:connector-curvature="0" /><path
         id="path42"
         style="fill:none;stroke:#231f20;stroke-width:15.60000038;stroke-linecap:butt;stroke-linejoin:miter;stroke-miterlimit:10;stroke-dasharray:none;stroke-opacity:1"
         d="m 4458.57,1645.15 7.9,-688.4"
         inkscape:connector-curvature="0" /><path
         id="path44"
         style="fill:none;stroke:#231f20;stroke-width:15.60000038;stroke-linecap:butt;stroke-linejoin:miter;stroke-miterlimit:10;stroke-dasharray:none;stroke-opacity:1"
         d="m 4456.17,960.949 1606.2,15.801"
         inkscape:connector-curvature="0" /><path
         id="path46"
         style="fill:none;stroke:#231f20;stroke-width:15.60000038;stroke-linecap:butt;stroke-linejoin:miter;stroke-miterlimit:10;stroke-dasharray:none;stroke-opacity:1"
         d="M 6055.77,970.949 V 1208.35"
         inkscape:connector-curvature="0" /><path
         id="path48"
         style="fill:none;stroke:#231f20;stroke-width:15.60000038;stroke-linecap:butt;stroke-linejoin:miter;stroke-miterlimit:10;stroke-dasharray:none;stroke-opacity:1"
         d="m 6062.17,1203.55 -1044.4,-7.9"
         inkscape:connector-curvature="0" /><path
         id="path50"
         style="fill:none;stroke:#231f20;stroke-width:15.60000038;stroke-linecap:butt;stroke-linejoin:miter;stroke-miterlimit:10;stroke-dasharray:none;stroke-opacity:1"
         d="m 5017.77,1190.55 v 237.4"
         inkscape:connector-curvature="0" /><path
         id="path52"
         style="fill:none;stroke:#231f20;stroke-width:15.60000038;stroke-linecap:butt;stroke-linejoin:miter;stroke-miterlimit:10;stroke-dasharray:none;stroke-opacity:1"
         d="m 6057.37,1427.95 -1044.4,-7.9"
         inkscape:connector-curvature="0" /><path
         id="path54"
         style="fill:none;stroke:#231f20;stroke-width:15.60000038;stroke-linecap:butt;stroke-linejoin:miter;stroke-miterlimit:10;stroke-dasharray:none;stroke-opacity:1"
         d="m 6052.17,1423.35 v 237.4"
         inkscape:connector-curvature="0" /><path
         id="path56"
         style="fill:none;stroke:#231f20;stroke-width:15.60000038;stroke-linecap:butt;stroke-linejoin:miter;stroke-miterlimit:10;stroke-dasharray:none;stroke-opacity:1"
         d="m 4453.77,1641.35 1606.2,15.8"
         inkscape:connector-curvature="0" /><path
         id="path58"
         style="fill:#ffffff;fill-opacity:1;fill-rule:evenodd;stroke:none"
         d="m 1092.57,1177.15 h 58.2 v 266.4 h 116.4 v -266.4 h 58.2 l -116.4,-116.4"
         inkscape:connector-curvature="0" /><path
         id="path60"
         style="fill:none;stroke:#231f20;stroke-width:15.60000038;stroke-linecap:butt;stroke-linejoin:miter;stroke-miterlimit:10;stroke-dasharray:none;stroke-opacity:1"
         d="m 1092.57,1177.15 h 58.2 v 266.4 h 116.4 v -266.4 h 58.2 l -116.4,-116.4 z"
         inkscape:connector-curvature="0" /><path
         id="path62"
         style="fill:#ffffff;fill-opacity:1;fill-rule:evenodd;stroke:none"
         d="m 4820.97,1379.95 h -58.2 v -266.4 h -116.4 v 266.4 h -58.2 l 116.4,116.4"
         inkscape:connector-curvature="0" /><path
         id="path64"
         style="fill:none;stroke:#231f20;stroke-width:15.60000038;stroke-linecap:butt;stroke-linejoin:miter;stroke-miterlimit:10;stroke-dasharray:none;stroke-opacity:1"
         d="m 4820.97,1379.95 h -58.2 v -266.4 h -116.4 v 266.4 h -58.2 l 116.4,116.4 z"
         inkscape:connector-curvature="0" /><g
         transform="scale(10)"
         id="g66"><text
           id="text78"
           style="font-variant:normal;font-weight:normal;font-size:12px;font-family:'Times New Roman';-inkscape-font-specification:TimesNewRomanPSMT;writing-mode:lr-tb;fill:#231f20;fill-opacity:1;fill-rule:nonzero;stroke:none"
           transform="matrix(1,0,0,-1,84.2168,209.355)"><tspan
             id="tspan68"
             y="0"
             x="0 6.7080002 12.708 17.982141 23.982141 29.26799 32.375988 35.71199 38.71199">Shape : ?</tspan><tspan
             id="tspan70"
             y="-1.51992"
             x="194.28 200.75992 206.0399 212.1479 215.4839 221.4839 225.4799 230.74791 233.8559 237.19189 240.32393 414.80994 425.24994 430.52997 433.86597 439.76999 445.76999 449.10599 452.35803 455.69403 458.69403">Texture : ?Weight : ?</tspan><tspan
             id="tspan72"
             y="84.759781"
             x="215.27409 223.94395 229.19998 235.19998 239.19598 244.44 247.776 251.02209 259.69196 264.94797 268.284 276.94797 282.94797 286.94397">Neural Network</tspan><tspan
             id="tspan74"
             y="58.510181"
             x="429.0401 437.7041 441.63998 446.91998 452.91998 458.79999 464.08002">Oranges</tspan><tspan
             id="tspan76"
             y="102.75978"
             x="431.30026 439.9584 445.9584 451.9584 455.30026 460.58032">Apples</tspan></text>
<text
           id="text82"
           style="font-variant:normal;font-weight:normal;font-size:12.02400017px;font-family:'Times New Roman';-inkscape-font-specification:TimesNewRomanPSMT;writing-mode:lr-tb;fill:#231f20;fill-opacity:1;fill-rule:nonzero;stroke:none"
           transform="matrix(1,0,0,-1,30.95706,122.35542)"><tspan
             id="tspan80"
             y="0"
             x="0 6.6011758 10.556987 16.568987 19.911659 23.254332">Fruits</tspan></text>
</g><path
         id="path84"
         style="fill:none;stroke:#231f20;stroke-width:15.60000038;stroke-linecap:butt;stroke-linejoin:miter;stroke-miterlimit:10;stroke-dasharray:none;stroke-opacity:1"
         d="m 1790.97,1957.15 6.3,-543.8"
         inkscape:connector-curvature="0" /><path
         id="path86"
         style="fill:none;stroke:#231f20;stroke-width:15.60000038;stroke-linecap:butt;stroke-linejoin:miter;stroke-miterlimit:10;stroke-dasharray:none;stroke-opacity:1"
         d="m 1607.37,1959.55 v -697.5"
         inkscape:connector-curvature="0" /><path
         id="path88"
         style="fill:none;stroke:#231f20;stroke-width:15.60000038;stroke-linecap:butt;stroke-linejoin:miter;stroke-miterlimit:10;stroke-dasharray:none;stroke-opacity:1"
         d="m 1697.37,1957.15 3.7,-623.8"
         inkscape:connector-curvature="0" /><path
         id="path90"
         style="fill:none;stroke:#231f20;stroke-width:15.60000038;stroke-linecap:butt;stroke-linejoin:miter;stroke-miterlimit:10;stroke-dasharray:none;stroke-opacity:1"
         d="m 1788.57,1413.45 202.5,2.5"
         inkscape:connector-curvature="0" /><path
         id="path92"
         style="fill:none;stroke:#231f20;stroke-width:15.60000038;stroke-linecap:butt;stroke-linejoin:miter;stroke-miterlimit:10;stroke-dasharray:none;stroke-opacity:1"
         d="m 1694.97,1339.15 h 251.3"
         inkscape:connector-curvature="0" /><path
         id="path94"
         style="fill:none;stroke:#231f20;stroke-width:15.60000038;stroke-linecap:butt;stroke-linejoin:miter;stroke-miterlimit:10;stroke-dasharray:none;stroke-opacity:1"
         d="m 1600.17,1267.05 305,2.5"
         inkscape:connector-curvature="0" /><path
         id="path96"
         style="fill:none;stroke:#231f20;stroke-width:15.60000038;stroke-linecap:butt;stroke-linejoin:miter;stroke-miterlimit:10;stroke-dasharray:none;stroke-opacity:1"
         d="m 2297.37,1419.55 h 428.8"
         inkscape:connector-curvature="0" /><path
         id="path98"
         style="fill:none;stroke:#231f20;stroke-width:15.60000038;stroke-linecap:butt;stroke-linejoin:miter;stroke-miterlimit:10;stroke-dasharray:none;stroke-opacity:1"
         d="m 2347.77,1331.75 381.3,5"
         inkscape:connector-curvature="0" /><path
         id="path100"
         style="fill:none;stroke:#231f20;stroke-width:15.60000038;stroke-linecap:butt;stroke-linejoin:miter;stroke-miterlimit:10;stroke-dasharray:none;stroke-opacity:1"
         d="m 2407.77,1241.95 321.3,1.2"
         inkscape:connector-curvature="0" /><path
         id="path102"
         style="fill:none;stroke:#231f20;stroke-width:15.60000038;stroke-linecap:butt;stroke-linejoin:miter;stroke-miterlimit:10;stroke-dasharray:none;stroke-opacity:1"
         d="m 4050.57,1313.35 381.9,0.6"
         inkscape:connector-curvature="0" /><path
         id="path104"
         style="fill:#ffffff;fill-opacity:1;fill-rule:evenodd;stroke:none"
         d="m 358.168,272.949 c 0,72.602 58.801,131.403 131.402,131.403 72.598,0 131.399,-58.801 131.399,-131.403 0,-72.597 -58.801,-131.398 -131.399,-131.398 -72.601,0 -131.402,58.801 -131.402,131.398"
         inkscape:connector-curvature="0" /><path
         id="path106"
         style="fill:none;stroke:#231f20;stroke-width:15.60000038;stroke-linecap:butt;stroke-linejoin:miter;stroke-miterlimit:10;stroke-dasharray:none;stroke-opacity:1"
         d="m 358.168,272.949 c 0,72.602 58.801,131.403 131.402,131.403 72.598,0 131.399,-58.801 131.399,-131.403 0,-72.597 -58.801,-131.398 -131.399,-131.398 -72.601,0 -131.402,58.801 -131.402,131.398 z"
         inkscape:connector-curvature="0" /><path
         id="path108"
         style="fill:#ffffff;fill-opacity:1;fill-rule:evenodd;stroke:none"
         d="m 5908.17,250.75 c 0,72.199 58.8,130.801 131.4,130.801 72.6,0 131.4,-58.602 131.4,-130.801 0,-72.199 -58.8,-130.801 -131.4,-130.801 -72.6,0 -131.4,58.602 -131.4,130.801"
         inkscape:connector-curvature="0" /><path
         id="path110"
         style="fill:none;stroke:#231f20;stroke-width:15.60000038;stroke-linecap:butt;stroke-linejoin:miter;stroke-miterlimit:10;stroke-dasharray:none;stroke-opacity:1"
         d="m 5908.17,250.75 c 0,72.199 58.8,130.801 131.4,130.801 72.6,0 131.4,-58.602 131.4,-130.801 0,-72.199 -58.8,-130.801 -131.4,-130.801 -72.6,0 -131.4,58.602 -131.4,130.801 z"
         inkscape:connector-curvature="0" /><path
         id="path112"
         style="fill:none;stroke:#231f20;stroke-width:15.60000038;stroke-linecap:butt;stroke-linejoin:miter;stroke-miterlimit:10;stroke-dasharray:none;stroke-opacity:1"
         d="m 488.969,404.352 5550.001,-22.5"
         inkscape:connector-curvature="0" /><path
         id="path114"
         style="fill:none;stroke:#231f20;stroke-width:15.60000038;stroke-linecap:butt;stroke-linejoin:miter;stroke-miterlimit:10;stroke-dasharray:none;stroke-opacity:1"
         d="m 481.77,141.551 5550,-22.5"
         inkscape:connector-curvature="0" /><path
         id="path116"
         style="fill:#ffffff;fill-opacity:1;fill-rule:evenodd;stroke:none"
         d="m 1925.37,298.148 c 0,8.903 7.3,16.204 16.2,16.204 h 484.8 c 8.9,0 16.2,-7.301 16.2,-16.204 v -64.796 c 0,-8.903 -7.3,-16.204 -16.2,-16.204 h -484.8 c -8.9,0 -16.2,7.301 -16.2,16.204"
         inkscape:connector-curvature="0" /><path
         id="path118"
         style="fill:none;stroke:#231f20;stroke-width:15.60000038;stroke-linecap:butt;stroke-linejoin:miter;stroke-miterlimit:10;stroke-dasharray:none;stroke-opacity:1"
         d="m 1925.37,298.148 c 0,8.903 7.3,16.204 16.2,16.204 h 484.8 c 8.9,0 16.2,-7.301 16.2,-16.204 v -64.796 c 0,-8.903 -7.3,-16.204 -16.2,-16.204 h -484.8 c -8.9,0 -16.2,7.301 -16.2,16.204 z"
         inkscape:connector-curvature="0" /><path
         id="path120"
         style="fill:#efed06;fill-opacity:1;fill-rule:evenodd;stroke:none"
         d="m 4617.57,555.551 c 0,58 50.2,105 112.2,105 62,0 112.2,-47 112.2,-105 0,-58 -50.2,-105 -112.2,-105 -62,0 -112.2,47 -112.2,105"
         inkscape:connector-curvature="0" /><path
         id="path122"
         style="fill:none;stroke:#231f20;stroke-width:9.60000038;stroke-linecap:butt;stroke-linejoin:miter;stroke-miterlimit:10;stroke-dasharray:none;stroke-opacity:1"
         d="m 4617.57,555.551 c 0,58 50.2,105 112.2,105 62,0 112.2,-47 112.2,-105 0,-58 -50.2,-105 -112.2,-105 -62,0 -112.2,47 -112.2,105 z"
         inkscape:connector-curvature="0" /><g
         transform="scale(10)"
         id="g124"><text
           id="text128"
           style="font-variant:normal;font-weight:normal;font-size:18px;font-family:Calibri;-inkscape-font-specification:Calibri;writing-mode:lr-tb;fill:#231f20;fill-opacity:1;fill-rule:nonzero;stroke:none"
           transform="matrix(1,0,0,-1,468.767,49.4449)"><tspan
             id="tspan126"
             y="0"
             x="0">a</tspan></text>
</g></g></g></svg>