<?xml version="1.0" encoding="UTF-8" standalone="no"?>
<svg
   xmlns:dc="http://purl.org/dc/elements/1.1/"
   xmlns:cc="http://creativecommons.org/ns#"
   xmlns:rdf="http://www.w3.org/1999/02/22-rdf-syntax-ns#"
   xmlns:svg="http://www.w3.org/2000/svg"
   xmlns="http://www.w3.org/2000/svg"
   xmlns:sodipodi="http://sodipodi.sourceforge.net/DTD/sodipodi-0.dtd"
   xmlns:inkscape="http://www.inkscape.org/namespaces/inkscape"
   viewBox="0 0 818.07996 289.87973"
   height="289.87973"
   width="818.07996"
   xml:space="preserve"
   id="svg2"
   version="1.1"
   sodipodi:docname="nnd3d1_1.svg"
   inkscape:version="0.92.1 r15371"><sodipodi:namedview
     pagecolor="#ffffff"
     bordercolor="#666666"
     borderopacity="1"
     objecttolerance="10"
     gridtolerance="10"
     guidetolerance="10"
     inkscape:pageopacity="0"
     inkscape:pageshadow="2"
     inkscape:window-width="1920"
     inkscape:window-height="1017"
     id="namedview4548"
     showgrid="false"
     fit-margin-top="0"
     fit-margin-left="0"
     fit-margin-right="0"
     fit-margin-bottom="0"
     inkscape:zoom="0.41300203"
     inkscape:cx="920.60557"
     inkscape:cy="-62.861977"
     inkscape:window-x="-8"
     inkscape:window-y="-8"
     inkscape:window-maximized="1"
     inkscape:current-layer="g12" /><metadata
     id="metadata8"><rdf:RDF><cc:Work
         rdf:about=""><dc:format>image/svg+xml</dc:format><dc:type
           rdf:resource="http://purl.org/dc/dcmitype/StillImage" /><dc:title></dc:title></cc:Work></rdf:RDF></metadata><defs
     id="defs6" /><g
     transform="matrix(1.3333333,0,0,-1.3333333,-16.396,319.60906)"
     id="g10"><g
       transform="scale(0.1)"
       id="g12"><path
         id="path16"
         style="fill:#ffffff;fill-opacity:1;fill-rule:evenodd;stroke:none"
         d="m 130.77,2073.67 h 6002.4 v 315.598 H 130.77 Z"
         inkscape:connector-curvature="0" /><path
         id="path18"
         style="fill:none;stroke:#231f20;stroke-width:15.60000038;stroke-linecap:butt;stroke-linejoin:miter;stroke-miterlimit:10;stroke-dasharray:none;stroke-opacity:1"
         d="m 130.77,2073.67 h 6002.4 v 315.598 H 130.77 Z"
         inkscape:connector-curvature="0" /><path
         id="path20"
         style="fill:none;stroke:#231f20;stroke-width:15.60000038;stroke-linecap:butt;stroke-linejoin:miter;stroke-miterlimit:10;stroke-dasharray:none;stroke-opacity:1"
         d="M 173.969,1473.67 H 1084.27"
         inkscape:connector-curvature="0" /><path
         id="path22"
         style="fill:none;stroke:#231f20;stroke-width:15.60000038;stroke-linecap:butt;stroke-linejoin:miter;stroke-miterlimit:10;stroke-dasharray:none;stroke-opacity:1"
         d="M 173.969,1270.87 H 1084.27"
         inkscape:connector-curvature="0" /><path
         id="path24"
         style="fill:none;stroke:#231f20;stroke-width:15.60000038;stroke-linecap:butt;stroke-linejoin:miter;stroke-miterlimit:10;stroke-dasharray:none;stroke-opacity:1"
         d="m 1084.77,1465.77 1.9,241.9"
         inkscape:connector-curvature="0" /><path
         id="path26"
         style="fill:none;stroke:#231f20;stroke-width:15.60000038;stroke-linecap:butt;stroke-linejoin:miter;stroke-miterlimit:10;stroke-dasharray:none;stroke-opacity:1"
         d="m 1078.77,1707.67 424.1,-1.9"
         inkscape:connector-curvature="0" /><path
         id="path28"
         style="fill:none;stroke:#231f20;stroke-width:15.60000038;stroke-linecap:butt;stroke-linejoin:miter;stroke-miterlimit:10;stroke-dasharray:none;stroke-opacity:1"
         d="m 1495.17,1711.27 3.8,-678.7"
         inkscape:connector-curvature="0" /><path
         id="path30"
         style="fill:none;stroke:#231f20;stroke-width:15.60000038;stroke-linecap:butt;stroke-linejoin:miter;stroke-miterlimit:10;stroke-dasharray:none;stroke-opacity:1"
         d="m 1077.57,1040.47 h 429.4"
         inkscape:connector-curvature="0" /><path
         id="path32"
         style="fill:none;stroke:#231f20;stroke-width:15.60000038;stroke-linecap:butt;stroke-linejoin:miter;stroke-miterlimit:10;stroke-dasharray:none;stroke-opacity:1"
         d="m 1083.57,1034.97 1.9,241.9"
         inkscape:connector-curvature="0" /><path
         id="path34"
         style="fill:#ffffff;fill-opacity:1;fill-rule:evenodd;stroke:none"
         d="m 1858.77,1104.07 369,600 369,-600"
         inkscape:connector-curvature="0" /><path
         id="path36"
         style="fill:none;stroke:#231f20;stroke-width:15.60000038;stroke-linecap:butt;stroke-linejoin:miter;stroke-miterlimit:10;stroke-dasharray:none;stroke-opacity:1"
         d="m 1858.77,1104.07 369,600 369,-600 z"
         inkscape:connector-curvature="0" /><path
         id="path38"
         style="fill:#ffffff;fill-opacity:1;fill-rule:evenodd;stroke:none"
         d="m 2811.57,1608.07 c 0,59.6 48.4,108 108,108 h 1080 c 59.6,0 108,-48.4 108,-108 v -432 c 0,-59.6 -48.4,-108 -108,-108 h -1080 c -59.6,0 -108,48.4 -108,108"
         inkscape:connector-curvature="0" /><path
         id="path40"
         style="fill:none;stroke:#231f20;stroke-width:15.60000038;stroke-linecap:butt;stroke-linejoin:miter;stroke-miterlimit:10;stroke-dasharray:none;stroke-opacity:1"
         d="m 2811.57,1608.07 c 0,59.6 48.4,108 108,108 h 1080 c 59.6,0 108,-48.4 108,-108 v -432 c 0,-59.6 -48.4,-108 -108,-108 h -1080 c -59.6,0 -108,48.4 -108,108 z"
         inkscape:connector-curvature="0" /><path
         id="path42"
         style="fill:none;stroke:#231f20;stroke-width:15.60000038;stroke-linecap:butt;stroke-linejoin:miter;stroke-miterlimit:10;stroke-dasharray:none;stroke-opacity:1"
         d="m 4538.37,1756.87 7.9,-688.4"
         inkscape:connector-curvature="0" /><path
         id="path44"
         style="fill:none;stroke:#231f20;stroke-width:15.60000038;stroke-linecap:butt;stroke-linejoin:miter;stroke-miterlimit:10;stroke-dasharray:none;stroke-opacity:1"
         d="m 4535.97,1072.67 1606.2,15.8"
         inkscape:connector-curvature="0" /><path
         id="path46"
         style="fill:none;stroke:#231f20;stroke-width:15.60000038;stroke-linecap:butt;stroke-linejoin:miter;stroke-miterlimit:10;stroke-dasharray:none;stroke-opacity:1"
         d="m 6135.57,1082.67 v 237.4"
         inkscape:connector-curvature="0" /><path
         id="path48"
         style="fill:none;stroke:#231f20;stroke-width:15.60000038;stroke-linecap:butt;stroke-linejoin:miter;stroke-miterlimit:10;stroke-dasharray:none;stroke-opacity:1"
         d="m 6141.97,1315.27 -1044.4,-7.9"
         inkscape:connector-curvature="0" /><path
         id="path50"
         style="fill:none;stroke:#231f20;stroke-width:15.60000038;stroke-linecap:butt;stroke-linejoin:miter;stroke-miterlimit:10;stroke-dasharray:none;stroke-opacity:1"
         d="m 5097.57,1302.27 v 237.4"
         inkscape:connector-curvature="0" /><path
         id="path52"
         style="fill:none;stroke:#231f20;stroke-width:15.60000038;stroke-linecap:butt;stroke-linejoin:miter;stroke-miterlimit:10;stroke-dasharray:none;stroke-opacity:1"
         d="m 6137.17,1539.67 -1044.4,-7.9"
         inkscape:connector-curvature="0" /><path
         id="path54"
         style="fill:none;stroke:#231f20;stroke-width:15.60000038;stroke-linecap:butt;stroke-linejoin:miter;stroke-miterlimit:10;stroke-dasharray:none;stroke-opacity:1"
         d="m 6131.97,1535.07 v 237.39"
         inkscape:connector-curvature="0" /><path
         id="path56"
         style="fill:none;stroke:#231f20;stroke-width:15.60000038;stroke-linecap:butt;stroke-linejoin:miter;stroke-miterlimit:10;stroke-dasharray:none;stroke-opacity:1"
         d="m 4533.57,1753.07 1606.2,15.8"
         inkscape:connector-curvature="0" /><path
         id="path58"
         style="fill:#ffffff;fill-opacity:1;fill-rule:evenodd;stroke:none"
         d="m 1172.37,1288.87 h 58.2 v 266.4 h 116.4 v -266.4 h 58.2 l -116.4,-116.4"
         inkscape:connector-curvature="0" /><path
         id="path60"
         style="fill:none;stroke:#231f20;stroke-width:15.60000038;stroke-linecap:butt;stroke-linejoin:miter;stroke-miterlimit:10;stroke-dasharray:none;stroke-opacity:1"
         d="m 1172.37,1288.87 h 58.2 v 266.4 h 116.4 v -266.4 h 58.2 l -116.4,-116.4 z"
         inkscape:connector-curvature="0" /><path
         id="path62"
         style="fill:#ffffff;fill-opacity:1;fill-rule:evenodd;stroke:none"
         d="m 4900.77,1491.67 h -58.2 v -266.4 h -116.4 v 266.4 h -58.2 l 116.4,116.4"
         inkscape:connector-curvature="0" /><path
         id="path64"
         style="fill:none;stroke:#231f20;stroke-width:15.60000038;stroke-linecap:butt;stroke-linejoin:miter;stroke-miterlimit:10;stroke-dasharray:none;stroke-opacity:1"
         d="m 4900.77,1491.67 h -58.2 v -266.4 h -116.4 v 266.4 h -58.2 l 116.4,116.4 z"
         inkscape:connector-curvature="0" /><g
         transform="scale(10)"
         id="g66"><text
           id="text78"
           style="font-variant:normal;font-weight:normal;font-size:12px;font-family:'Times New Roman';-inkscape-font-specification:TimesNewRomanPSMT;writing-mode:lr-tb;fill:#231f20;fill-opacity:1;fill-rule:nonzero;stroke:none"
           transform="matrix(1,0,0,-1,92.1969,220.527)"><tspan
             id="tspan68"
             y="0"
             x="0 6.7080002 12.708 17.982141 23.982141 29.26799 32.375988 35.71199 38.71199">Shape : ?</tspan><tspan
             id="tspan70"
             y="-1.51992"
             x="194.28 200.75992 206.0399 212.1479 215.4839 221.4839 225.4799 230.74791 233.8559 237.19189 240.32393 414.80994 425.24994 430.52997 433.86597 439.76999 445.76999 449.10599 452.35803 455.69403 458.69403">Texture : ?Weight : ?</tspan><tspan
             id="tspan72"
             y="84.759377"
             x="215.27409 223.94395 229.19998 235.19998 239.19598 244.44 247.776 251.02209 259.69196 264.94797 268.284 276.94797 282.94797 286.94397">Neural Network</tspan><tspan
             id="tspan74"
             y="58.509781"
             x="429.0401 437.7041 441.63998 446.91998 452.91998 458.79999 464.08002">Oranges</tspan><tspan
             id="tspan76"
             y="102.75938"
             x="431.29987 439.95801 445.95801 451.95801 455.29987 460.57993">Apples</tspan></text>
<text
           id="text82"
           style="font-variant:normal;font-weight:normal;font-size:12.02400017px;font-family:'Times New Roman';-inkscape-font-specification:TimesNewRomanPSMT;writing-mode:lr-tb;fill:#231f20;fill-opacity:1;fill-rule:nonzero;stroke:none"
           transform="matrix(1,0,0,-1,38.93677,133.52742)"><tspan
             id="tspan80"
             y="0"
             x="0 6.6011758 10.556987 16.568987 19.911659 23.254332">Fruits</tspan></text>
</g><path
         id="path84"
         style="fill:none;stroke:#231f20;stroke-width:15.60000038;stroke-linecap:butt;stroke-linejoin:miter;stroke-miterlimit:10;stroke-dasharray:none;stroke-opacity:1"
         d="m 1870.77,2068.87 6.3,-543.8"
         inkscape:connector-curvature="0" /><path
         id="path86"
         style="fill:none;stroke:#231f20;stroke-width:15.60000038;stroke-linecap:butt;stroke-linejoin:miter;stroke-miterlimit:10;stroke-dasharray:none;stroke-opacity:1"
         d="m 1687.17,2071.27 v -697.5"
         inkscape:connector-curvature="0" /><path
         id="path88"
         style="fill:none;stroke:#231f20;stroke-width:15.60000038;stroke-linecap:butt;stroke-linejoin:miter;stroke-miterlimit:10;stroke-dasharray:none;stroke-opacity:1"
         d="m 1777.17,2068.87 3.7,-623.8"
         inkscape:connector-curvature="0" /><path
         id="path90"
         style="fill:none;stroke:#231f20;stroke-width:15.60000038;stroke-linecap:butt;stroke-linejoin:miter;stroke-miterlimit:10;stroke-dasharray:none;stroke-opacity:1"
         d="m 1868.37,1525.17 202.5,2.5"
         inkscape:connector-curvature="0" /><path
         id="path92"
         style="fill:none;stroke:#231f20;stroke-width:15.60000038;stroke-linecap:butt;stroke-linejoin:miter;stroke-miterlimit:10;stroke-dasharray:none;stroke-opacity:1"
         d="m 1774.77,1450.87 h 251.3"
         inkscape:connector-curvature="0" /><path
         id="path94"
         style="fill:none;stroke:#231f20;stroke-width:15.60000038;stroke-linecap:butt;stroke-linejoin:miter;stroke-miterlimit:10;stroke-dasharray:none;stroke-opacity:1"
         d="m 1679.97,1378.77 305,2.5"
         inkscape:connector-curvature="0" /><path
         id="path96"
         style="fill:none;stroke:#231f20;stroke-width:15.60000038;stroke-linecap:butt;stroke-linejoin:miter;stroke-miterlimit:10;stroke-dasharray:none;stroke-opacity:1"
         d="m 2377.17,1531.27 h 428.8"
         inkscape:connector-curvature="0" /><path
         id="path98"
         style="fill:none;stroke:#231f20;stroke-width:15.60000038;stroke-linecap:butt;stroke-linejoin:miter;stroke-miterlimit:10;stroke-dasharray:none;stroke-opacity:1"
         d="m 2427.57,1443.47 381.3,5"
         inkscape:connector-curvature="0" /><path
         id="path100"
         style="fill:none;stroke:#231f20;stroke-width:15.60000038;stroke-linecap:butt;stroke-linejoin:miter;stroke-miterlimit:10;stroke-dasharray:none;stroke-opacity:1"
         d="m 2487.57,1353.67 321.3,1.2"
         inkscape:connector-curvature="0" /><path
         id="path102"
         style="fill:none;stroke:#231f20;stroke-width:15.60000038;stroke-linecap:butt;stroke-linejoin:miter;stroke-miterlimit:10;stroke-dasharray:none;stroke-opacity:1"
         d="m 4130.37,1425.07 381.9,0.6"
         inkscape:connector-curvature="0" /><path
         id="path104"
         style="fill:#ffffff;fill-opacity:1;fill-rule:evenodd;stroke:none"
         d="m 437.969,384.672 c 0,72.598 58.801,131.398 131.402,131.398 72.602,0 131.399,-58.8 131.399,-131.398 0,-72.602 -58.797,-131.402 -131.399,-131.402 -72.601,0 -131.402,58.8 -131.402,131.402"
         inkscape:connector-curvature="0" /><path
         id="path106"
         style="fill:none;stroke:#231f20;stroke-width:15.60000038;stroke-linecap:butt;stroke-linejoin:miter;stroke-miterlimit:10;stroke-dasharray:none;stroke-opacity:1"
         d="m 437.969,384.672 c 0,72.598 58.801,131.398 131.402,131.398 72.602,0 131.399,-58.8 131.399,-131.398 0,-72.602 -58.797,-131.402 -131.399,-131.402 -72.601,0 -131.402,58.8 -131.402,131.402 z"
         inkscape:connector-curvature="0" /><path
         id="path108"
         style="fill:#ffffff;fill-opacity:1;fill-rule:evenodd;stroke:none"
         d="m 5987.97,362.469 c 0,72.203 58.8,130.801 131.4,130.801 72.6,0 131.4,-58.598 131.4,-130.801 0,-72.199 -58.8,-130.797 -131.4,-130.797 -72.6,0 -131.4,58.598 -131.4,130.797"
         inkscape:connector-curvature="0" /><path
         id="path110"
         style="fill:none;stroke:#231f20;stroke-width:15.60000038;stroke-linecap:butt;stroke-linejoin:miter;stroke-miterlimit:10;stroke-dasharray:none;stroke-opacity:1"
         d="m 5987.97,362.469 c 0,72.203 58.8,130.801 131.4,130.801 72.6,0 131.4,-58.598 131.4,-130.801 0,-72.199 -58.8,-130.797 -131.4,-130.797 -72.6,0 -131.4,58.598 -131.4,130.797 z"
         inkscape:connector-curvature="0" /><path
         id="path112"
         style="fill:none;stroke:#231f20;stroke-width:15.60000038;stroke-linecap:butt;stroke-linejoin:miter;stroke-miterlimit:10;stroke-dasharray:none;stroke-opacity:1"
         d="m 568.77,516.07 5550,-22.5"
         inkscape:connector-curvature="0" /><path
         id="path114"
         style="fill:none;stroke:#231f20;stroke-width:15.60000038;stroke-linecap:butt;stroke-linejoin:miter;stroke-miterlimit:10;stroke-dasharray:none;stroke-opacity:1"
         d="m 561.57,253.27 5550,-22.5"
         inkscape:connector-curvature="0" /><path
         id="path116"
         style="fill:#ffffff;fill-opacity:1;fill-rule:evenodd;stroke:none"
         d="m 2005.17,409.871 c 0,8.899 7.3,16.199 16.2,16.199 h 484.8 c 8.9,0 16.2,-7.3 16.2,-16.199 V 345.07 c 0,-8.898 -7.3,-16.199 -16.2,-16.199 h -484.8 c -8.9,0 -16.2,7.301 -16.2,16.199"
         inkscape:connector-curvature="0" /><path
         id="path118"
         style="fill:none;stroke:#231f20;stroke-width:15.60000038;stroke-linecap:butt;stroke-linejoin:miter;stroke-miterlimit:10;stroke-dasharray:none;stroke-opacity:1"
         d="m 2005.17,409.871 c 0,8.899 7.3,16.199 16.2,16.199 h 484.8 c 8.9,0 16.2,-7.3 16.2,-16.199 V 345.07 c 0,-8.898 -7.3,-16.199 -16.2,-16.199 h -484.8 c -8.9,0 -16.2,7.301 -16.2,16.199 z"
         inkscape:connector-curvature="0" /><path
         id="path120"
         style="fill:#efed06;fill-opacity:1;fill-rule:evenodd;stroke:none"
         d="m 1164.57,667.27 c 0,58 50.5,105 112.8,105 62.3,0 112.8,-47 112.8,-105 0,-58 -50.5,-105 -112.8,-105 -62.3,0 -112.8,47 -112.8,105"
         inkscape:connector-curvature="0" /><path
         id="path122"
         style="fill:none;stroke:#231f20;stroke-width:9.60000038;stroke-linecap:butt;stroke-linejoin:miter;stroke-miterlimit:10;stroke-dasharray:none;stroke-opacity:1"
         d="m 1164.57,667.27 c 0,58 50.5,105 112.8,105 62.3,0 112.8,-47 112.8,-105 0,-58 -50.5,-105 -112.8,-105 -62.3,0 -112.8,47 -112.8,105 z"
         inkscape:connector-curvature="0" /><g
         transform="scale(10)"
         id="g124"><text
           id="text128"
           style="font-variant:normal;font-weight:normal;font-size:18px;font-family:Calibri;-inkscape-font-specification:Calibri;writing-mode:lr-tb;fill:#231f20;fill-opacity:1;fill-rule:nonzero;stroke:none"
           transform="matrix(1,0,0,-1,123.437,60.6172)"><tspan
             id="tspan126"
             y="0"
             x="0">a</tspan></text>
</g></g></g></svg>